<mxfile host="Electron" agent="Mozilla/5.0 (Windows NT 10.0; Win64; x64) AppleWebKit/537.36 (KHTML, like Gecko) draw.io/24.7.17 Chrome/128.0.6613.36 Electron/32.0.1 Safari/537.36" version="24.7.17">
  <diagram name="Page-1" id="cAB6s37JzYpEZhVwJRdQ">
    <mxGraphModel dx="4445" dy="2050" grid="1" gridSize="10" guides="1" tooltips="1" connect="1" arrows="1" fold="1" page="1" pageScale="1" pageWidth="850" pageHeight="1100" math="0" shadow="0">
      <root>
        <mxCell id="0" />
        <mxCell id="1" parent="0" />
        <mxCell id="AkjdPL-4N6GHuwgRZJeO-4" style="edgeStyle=orthogonalEdgeStyle;rounded=0;orthogonalLoop=1;jettySize=auto;html=1;entryX=0.5;entryY=0;entryDx=0;entryDy=0;" edge="1" parent="1" source="AkjdPL-4N6GHuwgRZJeO-1" target="AkjdPL-4N6GHuwgRZJeO-2">
          <mxGeometry relative="1" as="geometry" />
        </mxCell>
        <mxCell id="AkjdPL-4N6GHuwgRZJeO-1" value="Register" style="ellipse;whiteSpace=wrap;html=1;fillColor=#647687;fontColor=#ffffff;strokeColor=#314354;" vertex="1" parent="1">
          <mxGeometry x="-1375.08" y="110" width="120" height="80" as="geometry" />
        </mxCell>
        <mxCell id="AkjdPL-4N6GHuwgRZJeO-14" style="edgeStyle=orthogonalEdgeStyle;rounded=0;orthogonalLoop=1;jettySize=auto;html=1;entryX=0.5;entryY=0;entryDx=0;entryDy=0;" edge="1" parent="1" source="AkjdPL-4N6GHuwgRZJeO-2" target="AkjdPL-4N6GHuwgRZJeO-11">
          <mxGeometry relative="1" as="geometry" />
        </mxCell>
        <mxCell id="AkjdPL-4N6GHuwgRZJeO-15" value="(Post) Username" style="edgeLabel;html=1;align=center;verticalAlign=middle;resizable=0;points=[];" vertex="1" connectable="0" parent="AkjdPL-4N6GHuwgRZJeO-14">
          <mxGeometry x="0.0545" y="-1" relative="1" as="geometry">
            <mxPoint as="offset" />
          </mxGeometry>
        </mxCell>
        <mxCell id="AkjdPL-4N6GHuwgRZJeO-2" value="Input email" style="shape=parallelogram;perimeter=parallelogramPerimeter;whiteSpace=wrap;html=1;fixedSize=1;fillColor=#647687;strokeColor=#314354;fontColor=#ffffff;" vertex="1" parent="1">
          <mxGeometry x="-1377.08" y="220" width="125" height="60" as="geometry" />
        </mxCell>
        <mxCell id="AkjdPL-4N6GHuwgRZJeO-16" style="edgeStyle=orthogonalEdgeStyle;rounded=0;orthogonalLoop=1;jettySize=auto;html=1;entryX=0.037;entryY=0.664;entryDx=0;entryDy=0;entryPerimeter=0;" edge="1" parent="1" target="AkjdPL-4N6GHuwgRZJeO-2">
          <mxGeometry relative="1" as="geometry">
            <mxPoint x="-1360.33" y="260.20000000000005" as="targetPoint" />
            <mxPoint x="-1345.08" y="429.9999999999999" as="sourcePoint" />
            <Array as="points">
              <mxPoint x="-1440" y="430" />
              <mxPoint x="-1440" y="260" />
            </Array>
          </mxGeometry>
        </mxCell>
        <mxCell id="AkjdPL-4N6GHuwgRZJeO-41" value="(Response) Email is invalid" style="edgeLabel;html=1;align=center;verticalAlign=middle;resizable=0;points=[];" vertex="1" connectable="0" parent="AkjdPL-4N6GHuwgRZJeO-16">
          <mxGeometry x="-0.1485" y="1" relative="1" as="geometry">
            <mxPoint x="11" y="57" as="offset" />
          </mxGeometry>
        </mxCell>
        <mxCell id="AkjdPL-4N6GHuwgRZJeO-23" style="edgeStyle=orthogonalEdgeStyle;rounded=0;orthogonalLoop=1;jettySize=auto;html=1;exitX=0.5;exitY=1;exitDx=0;exitDy=0;" edge="1" parent="1" source="AkjdPL-4N6GHuwgRZJeO-11" target="AkjdPL-4N6GHuwgRZJeO-20">
          <mxGeometry relative="1" as="geometry" />
        </mxCell>
        <mxCell id="AkjdPL-4N6GHuwgRZJeO-40" value="Valid email" style="edgeLabel;html=1;align=center;verticalAlign=middle;resizable=0;points=[];" vertex="1" connectable="0" parent="AkjdPL-4N6GHuwgRZJeO-23">
          <mxGeometry x="-0.22" y="2" relative="1" as="geometry">
            <mxPoint as="offset" />
          </mxGeometry>
        </mxCell>
        <mxCell id="AkjdPL-4N6GHuwgRZJeO-11" value="Checking if email is valid" style="rhombus;whiteSpace=wrap;html=1;fillColor=#76608a;fontColor=#ffffff;strokeColor=#432D57;" vertex="1" parent="1">
          <mxGeometry x="-1355.08" y="390" width="80" height="80" as="geometry" />
        </mxCell>
        <mxCell id="AkjdPL-4N6GHuwgRZJeO-25" style="edgeStyle=orthogonalEdgeStyle;rounded=0;orthogonalLoop=1;jettySize=auto;html=1;entryX=0.5;entryY=0;entryDx=0;entryDy=0;" edge="1" parent="1" source="AkjdPL-4N6GHuwgRZJeO-20" target="AkjdPL-4N6GHuwgRZJeO-24">
          <mxGeometry relative="1" as="geometry" />
        </mxCell>
        <mxCell id="AkjdPL-4N6GHuwgRZJeO-39" value="Did not exist" style="edgeLabel;html=1;align=center;verticalAlign=middle;resizable=0;points=[];" vertex="1" connectable="0" parent="AkjdPL-4N6GHuwgRZJeO-25">
          <mxGeometry x="-0.4852" y="-1" relative="1" as="geometry">
            <mxPoint as="offset" />
          </mxGeometry>
        </mxCell>
        <mxCell id="AkjdPL-4N6GHuwgRZJeO-20" value="(Mongo) Querying the email" style="shape=cylinder3;whiteSpace=wrap;html=1;boundedLbl=1;backgroundOutline=1;size=15;fillColor=#76608a;fontColor=#ffffff;strokeColor=#432D57;" vertex="1" parent="1">
          <mxGeometry x="-1365.08" y="520" width="100" height="80" as="geometry" />
        </mxCell>
        <mxCell id="AkjdPL-4N6GHuwgRZJeO-26" style="edgeStyle=orthogonalEdgeStyle;rounded=0;orthogonalLoop=1;jettySize=auto;html=1;entryX=0;entryY=0.5;entryDx=0;entryDy=0;exitX=0;exitY=0.5;exitDx=0;exitDy=0;" edge="1" parent="1" source="AkjdPL-4N6GHuwgRZJeO-24" target="AkjdPL-4N6GHuwgRZJeO-2">
          <mxGeometry relative="1" as="geometry">
            <mxPoint x="-1520.08" y="431.42857142857144" as="targetPoint" />
            <Array as="points">
              <mxPoint x="-1530" y="687" />
              <mxPoint x="-1530" y="250" />
            </Array>
          </mxGeometry>
        </mxCell>
        <mxCell id="AkjdPL-4N6GHuwgRZJeO-29" value="(Response) email is already used" style="edgeLabel;html=1;align=center;verticalAlign=middle;resizable=0;points=[];" vertex="1" connectable="0" parent="AkjdPL-4N6GHuwgRZJeO-26">
          <mxGeometry x="-0.2331" y="-1" relative="1" as="geometry">
            <mxPoint x="59" y="135" as="offset" />
          </mxGeometry>
        </mxCell>
        <mxCell id="AkjdPL-4N6GHuwgRZJeO-31" value="" style="edgeStyle=orthogonalEdgeStyle;rounded=0;orthogonalLoop=1;jettySize=auto;html=1;" edge="1" parent="1" source="AkjdPL-4N6GHuwgRZJeO-24" target="AkjdPL-4N6GHuwgRZJeO-30">
          <mxGeometry relative="1" as="geometry" />
        </mxCell>
        <mxCell id="AkjdPL-4N6GHuwgRZJeO-24" value="If email exist it is used" style="rhombus;whiteSpace=wrap;html=1;fillColor=#76608a;fontColor=#ffffff;strokeColor=#432D57;" vertex="1" parent="1">
          <mxGeometry x="-1355.08" y="646.96" width="80" height="80" as="geometry" />
        </mxCell>
        <mxCell id="AkjdPL-4N6GHuwgRZJeO-33" style="edgeStyle=orthogonalEdgeStyle;rounded=0;orthogonalLoop=1;jettySize=auto;html=1;entryX=0;entryY=0.25;entryDx=0;entryDy=0;exitX=0;exitY=0.5;exitDx=0;exitDy=0;" edge="1" parent="1" source="AkjdPL-4N6GHuwgRZJeO-34" target="AkjdPL-4N6GHuwgRZJeO-2">
          <mxGeometry relative="1" as="geometry">
            <mxPoint x="-1460.08" y="750" as="sourcePoint" />
            <Array as="points">
              <mxPoint x="-1630" y="927" />
              <mxPoint x="-1630" y="238" />
            </Array>
          </mxGeometry>
        </mxCell>
        <mxCell id="AkjdPL-4N6GHuwgRZJeO-35" value="(Response) email is still in locked" style="edgeLabel;html=1;align=center;verticalAlign=middle;resizable=0;points=[];" vertex="1" connectable="0" parent="AkjdPL-4N6GHuwgRZJeO-33">
          <mxGeometry x="-0.3226" y="2" relative="1" as="geometry">
            <mxPoint x="82" y="153" as="offset" />
          </mxGeometry>
        </mxCell>
        <mxCell id="AkjdPL-4N6GHuwgRZJeO-37" style="edgeStyle=orthogonalEdgeStyle;rounded=0;orthogonalLoop=1;jettySize=auto;html=1;entryX=0.5;entryY=0;entryDx=0;entryDy=0;" edge="1" parent="1" source="AkjdPL-4N6GHuwgRZJeO-30" target="AkjdPL-4N6GHuwgRZJeO-34">
          <mxGeometry relative="1" as="geometry" />
        </mxCell>
        <mxCell id="AkjdPL-4N6GHuwgRZJeO-30" value="(Redis) Querying the data of the email." style="shape=cylinder3;whiteSpace=wrap;html=1;boundedLbl=1;backgroundOutline=1;size=15;fillColor=#76608a;fontColor=#ffffff;strokeColor=#432D57;" vertex="1" parent="1">
          <mxGeometry x="-1364.58" y="756.96" width="100" height="80" as="geometry" />
        </mxCell>
        <mxCell id="AkjdPL-4N6GHuwgRZJeO-44" style="edgeStyle=orthogonalEdgeStyle;rounded=0;orthogonalLoop=1;jettySize=auto;html=1;entryX=0.5;entryY=1;entryDx=0;entryDy=0;" edge="1" parent="1" source="AkjdPL-4N6GHuwgRZJeO-34">
          <mxGeometry relative="1" as="geometry">
            <mxPoint x="-1100" y="946.96" as="targetPoint" />
            <Array as="points">
              <mxPoint x="-1315" y="1010" />
              <mxPoint x="-1100" y="1010" />
            </Array>
          </mxGeometry>
        </mxCell>
        <mxCell id="AkjdPL-4N6GHuwgRZJeO-34" value="If email is locked or code already existing." style="rhombus;whiteSpace=wrap;html=1;fillColor=#76608a;fontColor=#ffffff;strokeColor=#432D57;" vertex="1" parent="1">
          <mxGeometry x="-1355.08" y="886.96" width="80" height="80" as="geometry" />
        </mxCell>
        <mxCell id="AkjdPL-4N6GHuwgRZJeO-57" style="edgeStyle=orthogonalEdgeStyle;rounded=0;orthogonalLoop=1;jettySize=auto;html=1;entryX=0.937;entryY=0.5;entryDx=0;entryDy=0;exitX=0;exitY=0.5;exitDx=0;exitDy=0;entryPerimeter=0;" edge="1" parent="1" source="AkjdPL-4N6GHuwgRZJeO-59">
          <mxGeometry relative="1" as="geometry">
            <mxPoint x="-1265.085" y="260" as="targetPoint" />
            <mxPoint x="-1138.13" y="830" as="sourcePoint" />
            <Array as="points">
              <mxPoint x="-1188" y="820" />
              <mxPoint x="-1188" y="260" />
            </Array>
          </mxGeometry>
        </mxCell>
        <mxCell id="AkjdPL-4N6GHuwgRZJeO-58" value="(Response) Internal server error" style="edgeLabel;html=1;align=center;verticalAlign=middle;resizable=0;points=[];" vertex="1" connectable="0" parent="AkjdPL-4N6GHuwgRZJeO-57">
          <mxGeometry x="-0.2372" relative="1" as="geometry">
            <mxPoint y="134" as="offset" />
          </mxGeometry>
        </mxCell>
        <mxCell id="AkjdPL-4N6GHuwgRZJeO-60" style="edgeStyle=orthogonalEdgeStyle;rounded=0;orthogonalLoop=1;jettySize=auto;html=1;entryX=0.5;entryY=1;entryDx=0;entryDy=0;" edge="1" parent="1" source="AkjdPL-4N6GHuwgRZJeO-56" target="AkjdPL-4N6GHuwgRZJeO-59">
          <mxGeometry relative="1" as="geometry" />
        </mxCell>
        <mxCell id="AkjdPL-4N6GHuwgRZJeO-56" value="Sending code in email" style="rounded=0;whiteSpace=wrap;html=1;fillColor=#76608a;fontColor=#ffffff;strokeColor=#432D57;" vertex="1" parent="1">
          <mxGeometry x="-1160" y="886.96" width="120" height="60" as="geometry" />
        </mxCell>
        <mxCell id="AkjdPL-4N6GHuwgRZJeO-62" style="edgeStyle=orthogonalEdgeStyle;rounded=0;orthogonalLoop=1;jettySize=auto;html=1;exitX=1;exitY=0.5;exitDx=0;exitDy=0;entryX=0.5;entryY=1;entryDx=0;entryDy=0;entryPerimeter=0;" edge="1" parent="1" source="AkjdPL-4N6GHuwgRZJeO-59" target="AkjdPL-4N6GHuwgRZJeO-70">
          <mxGeometry relative="1" as="geometry">
            <mxPoint x="-850" y="760" as="targetPoint" />
            <mxPoint x="-1000" y="820" as="sourcePoint" />
            <Array as="points">
              <mxPoint x="-660" y="820" />
            </Array>
          </mxGeometry>
        </mxCell>
        <mxCell id="AkjdPL-4N6GHuwgRZJeO-90" value="Emailing code success" style="edgeLabel;html=1;align=center;verticalAlign=middle;resizable=0;points=[];" vertex="1" connectable="0" parent="AkjdPL-4N6GHuwgRZJeO-62">
          <mxGeometry x="-0.3125" y="-2" relative="1" as="geometry">
            <mxPoint x="-5" y="-12" as="offset" />
          </mxGeometry>
        </mxCell>
        <mxCell id="AkjdPL-4N6GHuwgRZJeO-59" value="failed emailing code" style="rhombus;whiteSpace=wrap;html=1;fillColor=#76608a;fontColor=#ffffff;strokeColor=#432D57;" vertex="1" parent="1">
          <mxGeometry x="-1140" y="780" width="80" height="80" as="geometry" />
        </mxCell>
        <mxCell id="AkjdPL-4N6GHuwgRZJeO-64" style="edgeStyle=orthogonalEdgeStyle;rounded=0;orthogonalLoop=1;jettySize=auto;html=1;entryX=0.5;entryY=1;entryDx=0;entryDy=0;exitX=0.5;exitY=0;exitDx=0;exitDy=0;exitPerimeter=0;" edge="1" parent="1" source="AkjdPL-4N6GHuwgRZJeO-70" target="AkjdPL-4N6GHuwgRZJeO-63">
          <mxGeometry relative="1" as="geometry">
            <mxPoint x="-859.9999999999998" y="657" as="sourcePoint" />
          </mxGeometry>
        </mxCell>
        <mxCell id="AkjdPL-4N6GHuwgRZJeO-65" value="(Response) Verification Code" style="edgeLabel;html=1;align=center;verticalAlign=middle;resizable=0;points=[];" vertex="1" connectable="0" parent="AkjdPL-4N6GHuwgRZJeO-64">
          <mxGeometry x="0.0166" y="-2" relative="1" as="geometry">
            <mxPoint as="offset" />
          </mxGeometry>
        </mxCell>
        <mxCell id="AkjdPL-4N6GHuwgRZJeO-67" style="edgeStyle=orthogonalEdgeStyle;rounded=0;orthogonalLoop=1;jettySize=auto;html=1;entryX=0.5;entryY=1;entryDx=0;entryDy=0;" edge="1" parent="1" source="AkjdPL-4N6GHuwgRZJeO-63" target="AkjdPL-4N6GHuwgRZJeO-66">
          <mxGeometry relative="1" as="geometry" />
        </mxCell>
        <mxCell id="AkjdPL-4N6GHuwgRZJeO-63" value="Input Verification Code" style="shape=parallelogram;perimeter=parallelogramPerimeter;whiteSpace=wrap;html=1;fixedSize=1;fillColor=#647687;fontColor=#ffffff;strokeColor=#314354;" vertex="1" parent="1">
          <mxGeometry x="-720" y="490" width="120" height="60" as="geometry" />
        </mxCell>
        <mxCell id="AkjdPL-4N6GHuwgRZJeO-72" style="edgeStyle=orthogonalEdgeStyle;rounded=0;orthogonalLoop=1;jettySize=auto;html=1;" edge="1" parent="1" source="AkjdPL-4N6GHuwgRZJeO-66" target="AkjdPL-4N6GHuwgRZJeO-71">
          <mxGeometry relative="1" as="geometry">
            <Array as="points">
              <mxPoint x="-660" y="230" />
              <mxPoint x="-950" y="230" />
            </Array>
          </mxGeometry>
        </mxCell>
        <mxCell id="AkjdPL-4N6GHuwgRZJeO-80" value="Incorrect Code" style="edgeLabel;html=1;align=center;verticalAlign=middle;resizable=0;points=[];" vertex="1" connectable="0" parent="AkjdPL-4N6GHuwgRZJeO-72">
          <mxGeometry x="-0.7514" y="-4" relative="1" as="geometry">
            <mxPoint as="offset" />
          </mxGeometry>
        </mxCell>
        <mxCell id="AkjdPL-4N6GHuwgRZJeO-82" value="(Post) Increment fail count" style="edgeLabel;html=1;align=center;verticalAlign=middle;resizable=0;points=[];" vertex="1" connectable="0" parent="AkjdPL-4N6GHuwgRZJeO-72">
          <mxGeometry x="-0.141" relative="1" as="geometry">
            <mxPoint x="-42" as="offset" />
          </mxGeometry>
        </mxCell>
        <mxCell id="AkjdPL-4N6GHuwgRZJeO-93" style="edgeStyle=orthogonalEdgeStyle;rounded=0;orthogonalLoop=1;jettySize=auto;html=1;entryX=0;entryY=0.5;entryDx=0;entryDy=0;" edge="1" parent="1" source="AkjdPL-4N6GHuwgRZJeO-66" target="AkjdPL-4N6GHuwgRZJeO-92">
          <mxGeometry relative="1" as="geometry" />
        </mxCell>
        <mxCell id="AkjdPL-4N6GHuwgRZJeO-66" value="If code incorrect" style="rhombus;whiteSpace=wrap;html=1;fillColor=#647687;fontColor=#ffffff;strokeColor=#314354;" vertex="1" parent="1">
          <mxGeometry x="-700" y="320" width="80" height="80" as="geometry" />
        </mxCell>
        <mxCell id="AkjdPL-4N6GHuwgRZJeO-70" value="(Redis) Querying the email" style="shape=cylinder3;whiteSpace=wrap;html=1;boundedLbl=1;backgroundOutline=1;size=15;fillColor=#76608a;fontColor=#ffffff;strokeColor=#432D57;" vertex="1" parent="1">
          <mxGeometry x="-710" y="660" width="100" height="80" as="geometry" />
        </mxCell>
        <mxCell id="AkjdPL-4N6GHuwgRZJeO-74" value="" style="edgeStyle=orthogonalEdgeStyle;rounded=0;orthogonalLoop=1;jettySize=auto;html=1;" edge="1" parent="1" source="AkjdPL-4N6GHuwgRZJeO-71" target="AkjdPL-4N6GHuwgRZJeO-73">
          <mxGeometry relative="1" as="geometry" />
        </mxCell>
        <mxCell id="AkjdPL-4N6GHuwgRZJeO-71" value="(Redis) Storing fail count in redis" style="shape=cylinder3;whiteSpace=wrap;html=1;boundedLbl=1;backgroundOutline=1;size=15;fillColor=#76608a;fontColor=#ffffff;strokeColor=#432D57;" vertex="1" parent="1">
          <mxGeometry x="-1000" y="310" width="100" height="80" as="geometry" />
        </mxCell>
        <mxCell id="AkjdPL-4N6GHuwgRZJeO-75" style="edgeStyle=orthogonalEdgeStyle;rounded=0;orthogonalLoop=1;jettySize=auto;html=1;entryX=0;entryY=0.5;entryDx=0;entryDy=0;" edge="1" parent="1" source="AkjdPL-4N6GHuwgRZJeO-73" target="AkjdPL-4N6GHuwgRZJeO-63">
          <mxGeometry relative="1" as="geometry" />
        </mxCell>
        <mxCell id="AkjdPL-4N6GHuwgRZJeO-84" value="(Response) attempt left" style="edgeLabel;html=1;align=center;verticalAlign=middle;resizable=0;points=[];" vertex="1" connectable="0" parent="AkjdPL-4N6GHuwgRZJeO-75">
          <mxGeometry x="-0.2758" y="2" relative="1" as="geometry">
            <mxPoint x="28" y="2" as="offset" />
          </mxGeometry>
        </mxCell>
        <mxCell id="AkjdPL-4N6GHuwgRZJeO-73" value="If fail count exceeded 3" style="rhombus;whiteSpace=wrap;html=1;fillColor=#76608a;fontColor=#ffffff;strokeColor=#432D57;" vertex="1" parent="1">
          <mxGeometry x="-990" y="480" width="80" height="80" as="geometry" />
        </mxCell>
        <mxCell id="AkjdPL-4N6GHuwgRZJeO-79" style="edgeStyle=orthogonalEdgeStyle;rounded=0;orthogonalLoop=1;jettySize=auto;html=1;" edge="1" parent="1" source="AkjdPL-4N6GHuwgRZJeO-77" target="AkjdPL-4N6GHuwgRZJeO-2">
          <mxGeometry relative="1" as="geometry">
            <mxPoint x="-982.49" y="687" as="sourcePoint" />
            <mxPoint x="-1240.0047826086957" y="236.30434782608694" as="targetPoint" />
            <Array as="points">
              <mxPoint x="-1092" y="250" />
            </Array>
          </mxGeometry>
        </mxCell>
        <mxCell id="AkjdPL-4N6GHuwgRZJeO-94" value="Sliding to input email again" style="edgeLabel;html=1;align=center;verticalAlign=middle;resizable=0;points=[];" vertex="1" connectable="0" parent="AkjdPL-4N6GHuwgRZJeO-79">
          <mxGeometry x="-0.1772" relative="1" as="geometry">
            <mxPoint as="offset" />
          </mxGeometry>
        </mxCell>
        <mxCell id="AkjdPL-4N6GHuwgRZJeO-85" value="" style="edgeStyle=orthogonalEdgeStyle;rounded=0;orthogonalLoop=1;jettySize=auto;html=1;exitX=0.5;exitY=1;exitDx=0;exitDy=0;" edge="1" parent="1" source="AkjdPL-4N6GHuwgRZJeO-73" target="AkjdPL-4N6GHuwgRZJeO-77">
          <mxGeometry relative="1" as="geometry">
            <mxPoint x="-982.49" y="687" as="sourcePoint" />
            <mxPoint x="-1262" y="250" as="targetPoint" />
            <Array as="points">
              <mxPoint x="-950" y="687" />
            </Array>
          </mxGeometry>
        </mxCell>
        <mxCell id="AkjdPL-4N6GHuwgRZJeO-87" value="Exceeded 3" style="edgeLabel;html=1;align=center;verticalAlign=middle;resizable=0;points=[];" vertex="1" connectable="0" parent="AkjdPL-4N6GHuwgRZJeO-85">
          <mxGeometry x="-0.7665" y="1" relative="1" as="geometry">
            <mxPoint as="offset" />
          </mxGeometry>
        </mxCell>
        <mxCell id="AkjdPL-4N6GHuwgRZJeO-88" value="(Response) The lock of email" style="edgeLabel;html=1;align=center;verticalAlign=middle;resizable=0;points=[];" vertex="1" connectable="0" parent="AkjdPL-4N6GHuwgRZJeO-85">
          <mxGeometry x="-0.4145" y="1" relative="1" as="geometry">
            <mxPoint as="offset" />
          </mxGeometry>
        </mxCell>
        <mxCell id="AkjdPL-4N6GHuwgRZJeO-77" value="Email is temporarily locked" style="shape=parallelogram;perimeter=parallelogramPerimeter;whiteSpace=wrap;html=1;fixedSize=1;fillColor=#647687;fontColor=#ffffff;strokeColor=#314354;" vertex="1" parent="1">
          <mxGeometry x="-1150" y="646.96" width="120" height="60" as="geometry" />
        </mxCell>
        <mxCell id="AkjdPL-4N6GHuwgRZJeO-97" style="edgeStyle=orthogonalEdgeStyle;rounded=0;orthogonalLoop=1;jettySize=auto;html=1;" edge="1" parent="1" source="AkjdPL-4N6GHuwgRZJeO-92" target="AkjdPL-4N6GHuwgRZJeO-96">
          <mxGeometry relative="1" as="geometry" />
        </mxCell>
        <mxCell id="AkjdPL-4N6GHuwgRZJeO-105" value="(Post) Credentials" style="edgeLabel;html=1;align=center;verticalAlign=middle;resizable=0;points=[];" vertex="1" connectable="0" parent="AkjdPL-4N6GHuwgRZJeO-97">
          <mxGeometry x="-0.0319" relative="1" as="geometry">
            <mxPoint as="offset" />
          </mxGeometry>
        </mxCell>
        <mxCell id="AkjdPL-4N6GHuwgRZJeO-92" value="Enter password" style="shape=parallelogram;perimeter=parallelogramPerimeter;whiteSpace=wrap;html=1;fixedSize=1;fillColor=#647687;fontColor=#ffffff;strokeColor=#314354;" vertex="1" parent="1">
          <mxGeometry x="-525" y="330" width="120" height="60" as="geometry" />
        </mxCell>
        <mxCell id="AkjdPL-4N6GHuwgRZJeO-99" style="edgeStyle=orthogonalEdgeStyle;rounded=0;orthogonalLoop=1;jettySize=auto;html=1;exitX=1;exitY=0.5;exitDx=0;exitDy=0;entryX=1;entryY=0.5;entryDx=0;entryDy=0;" edge="1" parent="1" source="AkjdPL-4N6GHuwgRZJeO-96" target="AkjdPL-4N6GHuwgRZJeO-92">
          <mxGeometry relative="1" as="geometry">
            <Array as="points">
              <mxPoint x="-260" y="560" />
              <mxPoint x="-260" y="360" />
            </Array>
          </mxGeometry>
        </mxCell>
        <mxCell id="AkjdPL-4N6GHuwgRZJeO-103" value="Password invalid" style="edgeLabel;html=1;align=center;verticalAlign=middle;resizable=0;points=[];" vertex="1" connectable="0" parent="AkjdPL-4N6GHuwgRZJeO-99">
          <mxGeometry x="-0.8019" relative="1" as="geometry">
            <mxPoint x="29" as="offset" />
          </mxGeometry>
        </mxCell>
        <mxCell id="AkjdPL-4N6GHuwgRZJeO-104" value="Password requires a-z capital and lower, also requires&amp;nbsp;&lt;div&gt;0-1 and special characters like @^$* and other&lt;/div&gt;" style="edgeLabel;html=1;align=center;verticalAlign=middle;resizable=0;points=[];" vertex="1" connectable="0" parent="AkjdPL-4N6GHuwgRZJeO-99">
          <mxGeometry x="0.0913" y="2" relative="1" as="geometry">
            <mxPoint x="12" y="16" as="offset" />
          </mxGeometry>
        </mxCell>
        <mxCell id="AkjdPL-4N6GHuwgRZJeO-106" value="(Response) Conflict" style="edgeLabel;html=1;align=center;verticalAlign=middle;resizable=0;points=[];" vertex="1" connectable="0" parent="AkjdPL-4N6GHuwgRZJeO-99">
          <mxGeometry x="0.4893" y="-2" relative="1" as="geometry">
            <mxPoint x="-22" y="-8" as="offset" />
          </mxGeometry>
        </mxCell>
        <mxCell id="AkjdPL-4N6GHuwgRZJeO-108" style="edgeStyle=orthogonalEdgeStyle;rounded=0;orthogonalLoop=1;jettySize=auto;html=1;entryX=0.5;entryY=0;entryDx=0;entryDy=0;" edge="1" parent="1" source="AkjdPL-4N6GHuwgRZJeO-96" target="AkjdPL-4N6GHuwgRZJeO-107">
          <mxGeometry relative="1" as="geometry" />
        </mxCell>
        <mxCell id="AkjdPL-4N6GHuwgRZJeO-96" value="Password validation" style="rhombus;whiteSpace=wrap;html=1;fillColor=#76608a;fontColor=#ffffff;strokeColor=#432D57;" vertex="1" parent="1">
          <mxGeometry x="-505" y="520" width="80" height="80" as="geometry" />
        </mxCell>
        <mxCell id="AkjdPL-4N6GHuwgRZJeO-113" style="edgeStyle=orthogonalEdgeStyle;rounded=0;orthogonalLoop=1;jettySize=auto;html=1;entryX=1;entryY=0.5;entryDx=0;entryDy=0;" edge="1" parent="1" source="AkjdPL-4N6GHuwgRZJeO-107" target="AkjdPL-4N6GHuwgRZJeO-112">
          <mxGeometry relative="1" as="geometry" />
        </mxCell>
        <mxCell id="AkjdPL-4N6GHuwgRZJeO-107" value="If user trusted this device" style="rhombus;whiteSpace=wrap;html=1;fillColor=#76608a;fontColor=#ffffff;strokeColor=#432D57;" vertex="1" parent="1">
          <mxGeometry x="-505" y="800" width="80" height="80" as="geometry" />
        </mxCell>
        <mxCell id="AkjdPL-4N6GHuwgRZJeO-122" style="edgeStyle=orthogonalEdgeStyle;rounded=0;orthogonalLoop=1;jettySize=auto;html=1;" edge="1" parent="1" source="AkjdPL-4N6GHuwgRZJeO-110" target="AkjdPL-4N6GHuwgRZJeO-121">
          <mxGeometry relative="1" as="geometry" />
        </mxCell>
        <mxCell id="AkjdPL-4N6GHuwgRZJeO-123" value="(Response)&amp;nbsp; Account created" style="edgeLabel;html=1;align=center;verticalAlign=middle;resizable=0;points=[];" vertex="1" connectable="0" parent="AkjdPL-4N6GHuwgRZJeO-122">
          <mxGeometry x="0.0429" y="-3" relative="1" as="geometry">
            <mxPoint as="offset" />
          </mxGeometry>
        </mxCell>
        <mxCell id="AkjdPL-4N6GHuwgRZJeO-110" value="(Mongo) Storing account" style="shape=cylinder3;whiteSpace=wrap;html=1;boundedLbl=1;backgroundOutline=1;size=15;fillColor=#76608a;fontColor=#ffffff;strokeColor=#432D57;" vertex="1" parent="1">
          <mxGeometry x="-330" y="800" width="100" height="80" as="geometry" />
        </mxCell>
        <mxCell id="AkjdPL-4N6GHuwgRZJeO-111" style="edgeStyle=orthogonalEdgeStyle;rounded=0;orthogonalLoop=1;jettySize=auto;html=1;entryX=0;entryY=0.5;entryDx=0;entryDy=0;entryPerimeter=0;" edge="1" parent="1" source="AkjdPL-4N6GHuwgRZJeO-107" target="AkjdPL-4N6GHuwgRZJeO-110">
          <mxGeometry relative="1" as="geometry" />
        </mxCell>
        <mxCell id="AkjdPL-4N6GHuwgRZJeO-116" style="edgeStyle=orthogonalEdgeStyle;rounded=0;orthogonalLoop=1;jettySize=auto;html=1;entryX=0;entryY=0.5;entryDx=0;entryDy=0;" edge="1" parent="1" source="AkjdPL-4N6GHuwgRZJeO-112" target="AkjdPL-4N6GHuwgRZJeO-115">
          <mxGeometry relative="1" as="geometry">
            <Array as="points">
              <mxPoint x="-650" y="840" />
              <mxPoint x="-650" y="1010" />
            </Array>
          </mxGeometry>
        </mxCell>
        <mxCell id="AkjdPL-4N6GHuwgRZJeO-112" value="If device has info" style="rhombus;whiteSpace=wrap;html=1;fillColor=#76608a;fontColor=#ffffff;strokeColor=#432D57;" vertex="1" parent="1">
          <mxGeometry x="-620" y="800" width="80" height="80" as="geometry" />
        </mxCell>
        <mxCell id="AkjdPL-4N6GHuwgRZJeO-114" style="edgeStyle=orthogonalEdgeStyle;rounded=0;orthogonalLoop=1;jettySize=auto;html=1;entryX=0.5;entryY=1;entryDx=0;entryDy=0;entryPerimeter=0;" edge="1" parent="1">
          <mxGeometry relative="1" as="geometry">
            <mxPoint x="-580" y="880" as="sourcePoint" />
            <mxPoint x="-290.02" y="880.02" as="targetPoint" />
            <Array as="points">
              <mxPoint x="-580" y="880" />
              <mxPoint x="-580" y="950" />
              <mxPoint x="-290" y="950" />
            </Array>
          </mxGeometry>
        </mxCell>
        <mxCell id="AkjdPL-4N6GHuwgRZJeO-117" value="Store the device info" style="edgeLabel;html=1;align=center;verticalAlign=middle;resizable=0;points=[];" vertex="1" connectable="0" parent="AkjdPL-4N6GHuwgRZJeO-114">
          <mxGeometry x="-0.1066" y="-1" relative="1" as="geometry">
            <mxPoint x="108" y="-11" as="offset" />
          </mxGeometry>
        </mxCell>
        <mxCell id="AkjdPL-4N6GHuwgRZJeO-115" value="Generate&amp;nbsp;&lt;div&gt;device info&lt;/div&gt;" style="shape=parallelogram;perimeter=parallelogramPerimeter;whiteSpace=wrap;html=1;fixedSize=1;fillColor=#76608a;fontColor=#ffffff;strokeColor=#432D57;" vertex="1" parent="1">
          <mxGeometry x="-525" y="980" width="120" height="60" as="geometry" />
        </mxCell>
        <mxCell id="AkjdPL-4N6GHuwgRZJeO-118" style="edgeStyle=orthogonalEdgeStyle;rounded=0;orthogonalLoop=1;jettySize=auto;html=1;entryX=0.601;entryY=1.009;entryDx=0;entryDy=0;entryPerimeter=0;" edge="1" parent="1" source="AkjdPL-4N6GHuwgRZJeO-115" target="AkjdPL-4N6GHuwgRZJeO-110">
          <mxGeometry relative="1" as="geometry" />
        </mxCell>
        <mxCell id="AkjdPL-4N6GHuwgRZJeO-120" value="Store the device info" style="edgeLabel;html=1;align=center;verticalAlign=middle;resizable=0;points=[];" vertex="1" connectable="0" parent="1">
          <mxGeometry x="-330.00473684210544" y="1000.0000000000002" as="geometry" />
        </mxCell>
        <mxCell id="AkjdPL-4N6GHuwgRZJeO-124" style="edgeStyle=orthogonalEdgeStyle;rounded=0;orthogonalLoop=1;jettySize=auto;html=1;" edge="1" parent="1" source="AkjdPL-4N6GHuwgRZJeO-121">
          <mxGeometry relative="1" as="geometry">
            <mxPoint x="-90" y="230" as="targetPoint" />
            <Array as="points">
              <mxPoint x="-70" y="630" />
              <mxPoint x="-70" y="230" />
            </Array>
          </mxGeometry>
        </mxCell>
        <mxCell id="AkjdPL-4N6GHuwgRZJeO-121" value="Account created" style="shape=parallelogram;perimeter=parallelogramPerimeter;whiteSpace=wrap;html=1;fixedSize=1;fillColor=#647687;fontColor=#ffffff;strokeColor=#314354;" vertex="1" parent="1">
          <mxGeometry x="-340" y="600" width="120" height="60" as="geometry" />
        </mxCell>
        <mxCell id="AkjdPL-4N6GHuwgRZJeO-126" value="&lt;font style=&quot;font-size: 50px;&quot;&gt;REGISTER FLOW&lt;/font&gt;" style="text;html=1;align=center;verticalAlign=middle;whiteSpace=wrap;rounded=0;" vertex="1" parent="1">
          <mxGeometry x="-1080" y="70" width="440" height="100" as="geometry" />
        </mxCell>
        <mxCell id="AkjdPL-4N6GHuwgRZJeO-129" style="edgeStyle=orthogonalEdgeStyle;rounded=0;orthogonalLoop=1;jettySize=auto;html=1;" edge="1" parent="1" source="AkjdPL-4N6GHuwgRZJeO-127" target="AkjdPL-4N6GHuwgRZJeO-128">
          <mxGeometry relative="1" as="geometry" />
        </mxCell>
        <mxCell id="AkjdPL-4N6GHuwgRZJeO-132" style="edgeStyle=orthogonalEdgeStyle;rounded=0;orthogonalLoop=1;jettySize=auto;html=1;entryX=0.5;entryY=0;entryDx=0;entryDy=0;" edge="1" parent="1" source="AkjdPL-4N6GHuwgRZJeO-127" target="AkjdPL-4N6GHuwgRZJeO-130">
          <mxGeometry relative="1" as="geometry">
            <Array as="points">
              <mxPoint x="-130" y="140" />
              <mxPoint x="-530" y="140" />
            </Array>
          </mxGeometry>
        </mxCell>
        <mxCell id="AkjdPL-4N6GHuwgRZJeO-127" value="If trust is true and device info is blank" style="rhombus;whiteSpace=wrap;html=1;fillColor=#647687;fontColor=#ffffff;strokeColor=#314354;" vertex="1" parent="1">
          <mxGeometry x="-170" y="190" width="80" height="80" as="geometry" />
        </mxCell>
        <mxCell id="AkjdPL-4N6GHuwgRZJeO-131" style="edgeStyle=orthogonalEdgeStyle;rounded=0;orthogonalLoop=1;jettySize=auto;html=1;entryX=1;entryY=0.5;entryDx=0;entryDy=0;" edge="1" parent="1" source="AkjdPL-4N6GHuwgRZJeO-128" target="AkjdPL-4N6GHuwgRZJeO-130">
          <mxGeometry relative="1" as="geometry" />
        </mxCell>
        <mxCell id="AkjdPL-4N6GHuwgRZJeO-128" value="Storing device information in&amp;nbsp;&lt;div&gt;cookies&lt;/div&gt;" style="rounded=0;whiteSpace=wrap;html=1;fillColor=#647687;fontColor=#ffffff;strokeColor=#314354;" vertex="1" parent="1">
          <mxGeometry x="-390" y="200" width="120" height="60" as="geometry" />
        </mxCell>
        <mxCell id="AkjdPL-4N6GHuwgRZJeO-130" value="End" style="ellipse;whiteSpace=wrap;html=1;fillColor=#647687;fontColor=#ffffff;strokeColor=#314354;" vertex="1" parent="1">
          <mxGeometry x="-589.9999999999999" y="190" width="120" height="80" as="geometry" />
        </mxCell>
        <mxCell id="AkjdPL-4N6GHuwgRZJeO-134" value="BACKEND" style="rounded=0;whiteSpace=wrap;html=1;fillColor=#76608a;fontColor=#ffffff;strokeColor=#432D57;" vertex="1" parent="1">
          <mxGeometry x="-1680" y="20" width="90" height="30" as="geometry" />
        </mxCell>
        <mxCell id="AkjdPL-4N6GHuwgRZJeO-135" value="FRONTEND" style="rounded=0;whiteSpace=wrap;html=1;fillColor=#647687;fontColor=#ffffff;strokeColor=#314354;" vertex="1" parent="1">
          <mxGeometry x="-1680" y="60" width="90" height="30" as="geometry" />
        </mxCell>
      </root>
    </mxGraphModel>
  </diagram>
</mxfile>
